{"title":"Priest [2011] DVDRip","uid":6561406,"size":734031918,"categoryP":"video","categoryS":"movies","magnet":"?xt=urn:btih:1b1199dff07a54f99224378f07af6d7740fb6926&amp;dn=Priest+%5B2011%5D+DVDRip&amp;tr=udp%3A%2F%2Ftracker.openbittorrent.com%3A80&amp;tr=udp%3A%2F%2Fopen.demonii.com%3A1337&amp;tr=udp%3A%2F%2Ftracker.coppersurfer.tk%3A6969&amp;tr=udp%3A%2F%2Fexodus.desync.com%3A6969","seeders":1,"leechers":0,"uploader":"RetroidPrime91","files":2,"time":1311495576,"description":"A priest disobeys church law to track down the vampires who kidnapped his niece.\n\nFormat : AVI\nFormat/Info : Audio Video Interleave\nFile size : 700 MiB\nDuration : 1h 23mn\nOverall bit rate : 1 168 Kbps\nWriting application : VirtualDubMod 1.5.4.1 (build 2178/release)\nWriting library : VirtualDubMod build 2178/release\n\nVideo\n\nFormat : MPEG-4 Visual\nFormat profile : Advanced Simple@L5\nFormat settings, BVOP : Yes\nFormat settings, QPel : No\nFormat settings, GMC : No warppoints\nFormat settings, Matrix : Custom\nCodec ID : XVID\nCodec ID/Hint : XviD\nDuration : 1h 23mn\nBit rate : 1 001 Kbps\nWidth : 720 pixels\nHeight : 304 pixels\nDisplay aspect ratio : 2.35:1\nFrame rate : 25.000 fps\nColor space : YUV\nChroma subsampling : 4:2:0\nBit depth : 8 bits\nScan type : Progressive\nCompression mode : Lossy\nBits/(Pixel*Frame) : 0.183\nStream size : 600 MiB (86%)\nWriting library : XviD 1.2.1 (UTC 2008-12-04)\n\nAudio\n\nFormat : MPEG Audio\nFormat version : Version 1\nFormat profile : Layer 3\nMode : Joint stereo\nMode extension : MS Stereo\nCodec ID : 55\nCodec ID/Hint : MP3\nDuration : 1h 23mn\nBit rate mode : Constant\nBit rate : 160 Kbps\nChannel(s) : 2 channels\nSampling rate : 48.0 KHz\nCompression mode : Lossy\nStream size : 95.9 MiB (14%)\nAlignment : Aligned on interleaves\nInterleave, duration : 80 ms (2.00 video frames)\nInterleave, preload duration : 504 ms\nWriting library : LAME3.98r\nEncoding settings : -m j -V 4 -q 2 -lowpass 17.5 -b 160\n\nPlease seed &amp; thank you for downloading, comments are appreciated.","torrent":{"xt":"urn:btih:1b1199dff07a54f99224378f07af6d7740fb6926","amp;dn":"Priest+%5B2011%5D+DVDRip","amp;tr":["udp%3A%2F%2Ftracker.openbittorrent.com%3A80","udp%3A%2F%2Fopen.demonii.com%3A1337","udp%3A%2F%2Ftracker.coppersurfer.tk%3A6969","udp%3A%2F%2Fexodus.desync.com%3A6969"],"infoHash":"1b1199dff07a54f99224378f07af6d7740fb6926","infoHashBuffer":{"type":"Buffer","data":[27,17,153,223,240,122,84,249,146,36,55,143,7,175,109,119,64,251,105,38]},"announce":[],"urlList":[]}}